<svg xmlns="http://www.w3.org/2000/svg" viewBox="0 0 1813.5 306.3"><defs><style>.cls-1,.cls-2,.cls-3,.cls-5,.cls-7{fill:none;}.cls-1,.cls-2,.cls-3{stroke:#f28b05;}.cls-1,.cls-10,.cls-11,.cls-2,.cls-4,.cls-5,.cls-6,.cls-7,.cls-8,.cls-9{stroke-linecap:round;}.cls-1,.cls-3{stroke-miterlimit:10;}.cls-1,.cls-2,.cls-3,.cls-4,.cls-5{stroke-width:18px;}.cls-10,.cls-11,.cls-2,.cls-4,.cls-5,.cls-6,.cls-7,.cls-8,.cls-9{stroke-linejoin:round;}.cls-10,.cls-11,.cls-4,.cls-8,.cls-9{fill:#727272;}.cls-10,.cls-11,.cls-4,.cls-5,.cls-6,.cls-7,.cls-8,.cls-9{stroke:#727272;}.cls-6{stroke-width:6.59px;}.cls-7{stroke-width:17.33px;}.cls-8{stroke-width:8.54px;}.cls-9{stroke-width:6.84px;}.cls-10{stroke-width:7.77px;}.cls-11{stroke-width:9px;}</style></defs><g id="Capa_2" data-name="Capa 2"><g id="Capa_1-2" data-name="Capa 1"><g id="Letras"><path class="cls-1" d="M441,297H612s99,0,99-63c0-81-99-72-99-72"/><line class="cls-2" x1="342" y1="63" x2="369" y2="9"/><path class="cls-1" d="M441,27H621s90,0,90,63c0,0,9,72-99,72H441"/><path class="cls-3" d="M873.2,27H998.43S1070,27,1070,99V225c0,81-71.57,72-71.57,72H873.2s-71.57,9-71.57-72V99S792.68,27,873.2,27Z"/><path class="cls-3" d="M1233.25,26.93h125.24s71.56,0,71.56,72v126c0,81-71.56,72-71.56,72H1233.25s-71.57,9-71.57-72v-126S1152.74,26.93,1233.25,26.93Z"/><path class="cls-1" d="M9,27H144s135-9,135,135S144,297,144,297H9"/><polyline class="cls-2" points="1656 27 1593 162 1656 297"/><line class="cls-1" x1="1521" y1="27" x2="1521" y2="297"/><polyline class="cls-2" points="1710 90 1673.93 162 1710 234"/><polyline class="cls-2" points="1773 125.8 1746.12 161.9 1773 198"/></g><circle class="cls-4" cx="1800" cy="163" r="4.5"/><circle class="cls-5" cx="273" cy="121" r="13.5"/><circle class="cls-5" cx="350" cy="54" r="13.5"/><line class="cls-6" x1="288" y1="108" x2="342" y2="63"/><circle class="cls-5" cx="697.5" cy="58.5" r="13.5"/><circle class="cls-5" cx="802" cy="94" r="13.5"/><circle class="cls-5" cx="1064" cy="259" r="13.5"/><circle class="cls-5" cx="1162" cy="202.5" r="13.5"/><circle class="cls-5" cx="1426.5" cy="76.5" r="13.5"/><circle class="cls-5" cx="1520" cy="163" r="13.5"/><circle class="cls-7" cx="1598" cy="163.5" r="13"/><line class="cls-8" x1="711" y1="63" x2="792" y2="90"/><line class="cls-9" x1="1073.02" y1="255.99" x2="1149.98" y2="212.01"/><line class="cls-10" x1="1440" y1="90" x2="1512" y2="158"/><line class="cls-11" x1="1539" y1="163" x2="1584" y2="162"/></g></g></svg>